<svg xmlns:xlink="http://www.w3.org/1999/xlink" xmlns="http://www.w3.org/2000/svg" class="css-ze2te4 css-qd6ojx" viewBox="0 0 136.11111111111111 136.10799000920645" width="136.11111111111111"  height="136.10799000920645" ><g transform="translate(-6.11135354777049, -6.112916332335825) scale(1.5614086597250325)" class="css-da2wg0" fill="#EAA159"><g xmlns="http://www.w3.org/2000/svg" fill="#EAA159"><path d="M54.295,65.807h8.794v22.386c1.082-0.416,2.147-0.866,3.186-1.364V23.71C58.677,26.269,54.963,49.795,54.295,65.807z" fill="#EAA159"></path><path d="M23.756,44.432V22.714h2.755v21.718c0,4.092,2.624,7.764,6.381,8.93l1.019,0.316L32.286,88.34   c2.065,0.772,4.202,1.396,6.4,1.849l-1.711-36.511l1.017-0.316c3.756-1.166,6.38-4.838,6.38-8.93V22.714h2.755v21.718   c0,4.913-2.954,9.366-7.304,11.191l1.642,35.034c1.975,0.275,3.987,0.428,6.036,0.428c4.465,0,8.773-0.677,12.832-1.93V68.562   h-8.889l0.044-1.421c0.148-4.75,1.861-46.414,16.164-46.414h1.378v64.646c13.159-7.51,22.056-21.667,22.056-37.873   c0-24.033-19.553-43.585-43.585-43.585C23.467,3.915,3.914,23.467,3.914,47.5c0,17.648,10.55,32.868,25.668,39.717l1.478-31.594   C26.711,53.798,23.756,49.345,23.756,44.432z M39.682,22.714h1.837v24.139h-1.837V22.714z M34.523,22.714h1.837v24.139h-1.837   V22.714z M29.364,22.714h1.837v24.139h-1.837V22.714z" fill="#EAA159"></path></g></g></svg>